<svg version="1.1" id="Layer_1" xmlns="http://www.w3.org/2000/svg" xmlns:xlink="http://www.w3.org/1999/xlink" x="0px" y="0px"
	 width="100%" viewBox="0 0 154 154" enable-background="new 0 0 154 154" xml:space="preserve">
<path fill="#101F38" opacity="1.000000" stroke="none" 
	d="
M90.000000,155.000000 
	C60.000004,155.000000 30.500008,155.000000 1.000008,155.000000 
	C1.000005,103.666679 1.000005,52.333351 1.000003,1.000022 
	C52.333317,1.000015 103.666634,1.000015 154.999969,1.000007 
	C154.999969,52.333313 154.999969,103.666626 154.999985,154.999969 
	C133.500000,155.000000 112.000000,155.000000 90.000000,155.000000 
M84.736893,118.475174 
	C84.746643,109.985069 84.761818,101.494972 84.764992,93.004868 
	C84.771278,76.192200 84.779579,59.379520 84.767029,42.566860 
	C84.764046,38.567783 85.810806,35.749786 90.675491,35.917004 
	C94.822464,36.059551 98.984375,35.684193 103.140114,35.670609 
	C115.397614,35.630539 127.655327,35.656300 139.847321,35.656300 
	C140.791992,27.996346 138.123306,24.885414 131.017792,24.883503 
	C96.055145,24.874090 61.092495,24.874025 26.129848,24.883589 
	C19.118837,24.885506 16.386211,28.074383 17.239880,35.389286 
	C18.173861,35.455193 19.143456,35.577129 20.113873,35.584087 
	C35.249111,35.692593 50.386013,35.945820 65.518944,35.798084 
	C70.927055,35.745289 72.582939,38.380344 72.582130,43.091236 
	C72.581871,44.589619 72.589020,46.088005 72.589043,47.586388 
	C72.589546,74.390282 72.640045,101.194374 72.537605,127.997879 
	C72.521362,132.245850 74.725014,134.157730 78.405632,134.611588 
	C81.856155,135.037064 84.667053,131.903503 84.748444,127.952820 
	C84.806725,125.123894 84.745697,122.292496 84.736893,118.475174 
M61.963215,121.575386 
	C62.923615,122.312988 63.884014,123.050583 65.254822,124.103386 
	C65.254822,102.778061 65.254822,82.106232 65.254822,61.470299 
	C61.026684,61.470299 57.150875,61.470299 53.047012,61.470299 
	C53.047012,74.998993 53.583305,88.145813 52.855480,101.222282 
	C52.382740,109.715775 54.090782,116.388283 61.963215,121.575386 
M104.026703,88.499992 
	C104.026703,79.427689 104.026703,70.355385 104.026703,61.484329 
	C99.474075,61.484329 95.741150,61.484329 92.035080,61.484329 
	C92.035080,82.423470 92.035080,102.967331 92.035080,123.904594 
	C99.626091,118.171883 106.370056,112.737587 104.153152,101.960754 
	C103.331696,97.967445 104.024185,93.662697 104.026703,88.499992 
M58.352077,53.943974 
	C60.612995,53.943974 62.873913,53.943974 65.023285,53.943974 
	C66.235924,45.532074 63.603920,42.281445 55.928902,42.230873 
	C44.600437,42.156223 33.271049,42.210224 21.942101,42.232094 
	C20.366367,42.235138 18.790882,42.367268 17.288277,42.436283 
	C16.748087,51.264561 19.240643,53.944267 27.401278,53.946095 
	C37.397835,53.948330 47.394390,53.945221 58.352077,53.943974 
M92.137772,46.774494 
	C91.984634,49.024101 91.831497,51.273708 91.649597,53.945786 
	C105.179337,53.945786 118.089104,53.973698 130.998672,53.934860 
	C138.237289,53.913082 141.111755,49.966095 139.293549,42.224907 
	C126.126892,42.224907 112.867188,42.033985 99.622871,42.399940 
	C97.223244,42.466248 94.886688,44.815094 92.137772,46.774494 
z"/>
<path fill="#D0D5DA" opacity="1.000000" stroke="none" 
	d="
M84.737396,118.968689 
	C84.745697,122.292496 84.806725,125.123894 84.748444,127.952820 
	C84.667053,131.903503 81.856155,135.037064 78.405632,134.611588 
	C74.725014,134.157730 72.521362,132.245850 72.537605,127.997879 
	C72.640045,101.194374 72.589546,74.390282 72.589043,47.586388 
	C72.589020,46.088005 72.581871,44.589619 72.582130,43.091236 
	C72.582939,38.380344 70.927055,35.745289 65.518944,35.798084 
	C50.386013,35.945820 35.249111,35.692593 20.113873,35.584087 
	C19.143456,35.577129 18.173861,35.455193 17.239880,35.389286 
	C16.386211,28.074383 19.118837,24.885506 26.129848,24.883589 
	C61.092495,24.874025 96.055145,24.874090 131.017792,24.883503 
	C138.123306,24.885414 140.791992,27.996346 139.847321,35.656300 
	C127.655327,35.656300 115.397614,35.630539 103.140114,35.670609 
	C98.984375,35.684193 94.822464,36.059551 90.675491,35.917004 
	C85.810806,35.749786 84.764046,38.567783 84.767029,42.566860 
	C84.779579,59.379520 84.771278,76.192200 84.764992,93.004868 
	C84.761818,101.494972 84.746643,109.985069 84.737396,118.968689 
z"/>
<path fill="#C8CDD3" opacity="1.000000" stroke="none" 
	d="
M61.731392,121.300064 
	C54.090782,116.388283 52.382740,109.715775 52.855480,101.222282 
	C53.583305,88.145813 53.047012,74.998993 53.047012,61.470299 
	C57.150875,61.470299 61.026684,61.470299 65.254822,61.470299 
	C65.254822,82.106232 65.254822,102.778061 65.254822,124.103386 
	C63.884014,123.050583 62.923615,122.312988 61.731392,121.300064 
z"/>
<path fill="#D1D6DB" opacity="1.000000" stroke="none" 
	d="
M104.026474,88.999985 
	C104.024185,93.662697 103.331696,97.967445 104.153152,101.960754 
	C106.370056,112.737587 99.626091,118.171883 92.035080,123.904594 
	C92.035080,102.967331 92.035080,82.423470 92.035080,61.484329 
	C95.741150,61.484329 99.474075,61.484329 104.026703,61.484329 
	C104.026703,70.355385 104.026703,79.427689 104.026474,88.999985 
z"/>
<path fill="#CACFD5" opacity="1.000000" stroke="none" 
	d="
M57.871513,53.944199 
	C47.394390,53.945221 37.397835,53.948330 27.401278,53.946095 
	C19.240643,53.944267 16.748087,51.264561 17.288277,42.436283 
	C18.790882,42.367268 20.366367,42.235138 21.942101,42.232094 
	C33.271049,42.210224 44.600437,42.156223 55.928902,42.230873 
	C63.603920,42.281445 66.235924,45.532074 65.023285,53.943974 
	C62.873913,53.943974 60.612995,53.943974 57.871513,53.944199 
z"/>
<path fill="#CBD0D6" opacity="1.000000" stroke="none" 
	d="
M92.329391,46.442341 
	C94.886688,44.815094 97.223244,42.466248 99.622871,42.399940 
	C112.867188,42.033985 126.126892,42.224907 139.293549,42.224907 
	C141.111755,49.966095 138.237289,53.913082 130.998672,53.934860 
	C118.089104,53.973698 105.179337,53.945786 91.649597,53.945786 
	C91.831497,51.273708 91.984634,49.024101 92.329391,46.442341 
z"/>
</svg>